<svg width="18" height="24" viewBox="0 0 18 24" fill="none" xmlns="http://www.w3.org/2000/svg">
<path d="M3.90625 20.8699H0.273438V9.19019H3.90625V20.8699ZM2.07031 7.62769C0.9375 7.62769 0 6.65112 0 5.47925C0 3.87769 1.71875 2.86206 3.125 3.68237C3.78906 4.03394 4.17969 4.73706 4.17969 5.47925C4.17969 6.65112 3.24219 7.62769 2.07031 7.62769ZM17.4609 20.8699H13.8672V15.2058C13.8672 13.8386 13.8281 12.1199 11.9531 12.1199C10.0781 12.1199 9.80469 13.5652 9.80469 15.0886V20.8699H6.17188V9.19019H9.64844V10.7917H9.6875C10.1953 9.89331 11.3672 8.91675 13.125 8.91675C16.7969 8.91675 17.5 11.3386 17.5 14.4636V20.8699H17.4609Z" fill="white"/>
</svg>
